<svg xmlns="http://www.w3.org/2000/svg" width="569" height="155" viewBox="0 0 569 155" fill="none">
  <path d="M56.0949 154.991C15.2358 154.991 0 120.012 0 77.2729C0 34.5341 15.2358 0 56.0949 0H128.702C169.552 0 184.797 34.5433 184.797 77.2729C184.797 120.002 169.552 154.991 128.702 154.991H56.0949ZM128.702 130.191C149.025 130.191 154.742 106.717 154.742 77.4954C154.742 48.2735 149.025 24.7996 128.702 24.7996H56.0949C35.7717 24.7996 30.0638 48.496 30.0638 77.4954C30.0638 106.495 35.7806 130.191 56.0949 130.191H128.702Z" fill="white"/>
  <path d="M56.0949 154.991C15.2358 154.991 0 120.012 0 77.2729C0 34.5341 15.2358 0 56.0949 0H128.702C169.552 0 184.797 34.5433 184.797 77.2729C184.797 120.002 169.552 154.991 128.702 154.991H56.0949ZM128.702 130.191C149.025 130.191 154.742 106.717 154.742 77.4954C154.742 48.2735 149.025 24.7996 128.702 24.7996H56.0949C35.7717 24.7996 30.0638 48.496 30.0638 77.4954C30.0638 106.495 35.7806 130.191 56.0949 130.191H128.702Z" fill="url(#paint0_linear_1029_84)"/>
  <path d="M256.13 154.991C215.279 154.991 200.035 120.002 200.035 77.2729C200.035 34.5433 215.27 0 256.13 0H328.737C369.587 0 384.832 34.5433 384.832 77.2729C384.832 120.002 369.587 154.991 328.737 154.991H256.13ZM328.737 130.191C349.06 130.191 354.777 106.717 354.777 77.4954C354.777 48.2735 349.06 24.7996 328.737 24.7996H256.13C235.806 24.7996 230.099 48.496 230.099 77.4954C230.099 106.495 235.815 130.191 256.13 130.191H328.737Z" fill="white"/>
  <path d="M256.13 154.991C215.279 154.991 200.035 120.002 200.035 77.2729C200.035 34.5433 215.27 0 256.13 0H328.737C369.587 0 384.832 34.5433 384.832 77.2729C384.832 120.002 369.587 154.991 328.737 154.991H256.13ZM328.737 130.191C349.06 130.191 354.777 106.717 354.777 77.4954C354.777 48.2735 349.06 24.7996 328.737 24.7996H256.13C235.806 24.7996 230.099 48.496 230.099 77.4954C230.099 106.495 235.815 130.191 256.13 130.191H328.737Z" fill="url(#paint1_linear_1029_84)"/>
  <path d="M408.329 0H516.078C552.913 0 565.189 22.1389 565.189 49.8218C565.189 71.5249 555.457 89.2323 534.921 95.8795L569 155H535.976L505.708 100.089H437.763V155H408.338V0H408.329ZM437.754 24.7996V75.0664H515.653C530.888 75.0664 535.976 63.3294 535.976 50.0443C535.976 36.7591 530.897 24.7996 515.653 24.7996H437.754Z" fill="white"/>
  <path d="M408.329 0H516.078C552.913 0 565.189 22.1389 565.189 49.8218C565.189 71.5249 555.457 89.2323 534.921 95.8795L569 155H535.976L505.708 100.089H437.763V155H408.338V0H408.329ZM437.754 24.7996V75.0664H515.653C530.888 75.0664 535.976 63.3294 535.976 50.0443C535.976 36.7591 530.897 24.7996 515.653 24.7996H437.754Z" fill="url(#paint2_linear_1029_84)"/>
  <defs>
    <linearGradient id="paint0_linear_1029_84" x1="0" y1="77.5" x2="569" y2="77.5" gradientUnits="userSpaceOnUse">
      <stop stop-color="#FA4144"/>
      <stop offset="1" stop-color="#4F0C0C"/>
    </linearGradient>
    <linearGradient id="paint1_linear_1029_84" x1="0" y1="77.5" x2="569" y2="77.5" gradientUnits="userSpaceOnUse">
      <stop stop-color="#FA4144"/>
      <stop offset="1" stop-color="#4F0C0C"/>
    </linearGradient>
    <linearGradient id="paint2_linear_1029_84" x1="0" y1="77.5" x2="569" y2="77.5" gradientUnits="userSpaceOnUse">
      <stop stop-color="#FA4144"/>
      <stop offset="1" stop-color="#4F0C0C"/>
    </linearGradient>
  </defs>
</svg>
