<svg width="73" height="20" viewBox="0 0 73 20" fill="none" xmlns="http://www.w3.org/2000/svg">
<g style="mix-blend-mode:difference">
<path d="M7.19671 19.9988C1.95468 19.9988 0 15.4854 0 9.97069C0 4.45601 1.95468 0 7.19671 0H16.5118C21.7527 0 23.7086 4.4572 23.7086 9.97069C23.7086 15.4842 21.7527 19.9988 16.5118 19.9988H7.19671ZM16.5118 16.7989C19.1192 16.7989 19.8526 13.77 19.8526 9.9994C19.8526 6.22884 19.1192 3.19995 16.5118 3.19995H7.19671C4.58934 3.19995 3.85705 6.25755 3.85705 9.9994C3.85705 13.7413 4.59048 16.7989 7.19671 16.7989H16.5118Z" fill="white"/>
<path d="M32.8602 19.9988C27.6193 19.9988 25.6635 15.4842 25.6635 9.97069C25.6635 4.4572 27.6182 0 32.8602 0H42.1753C47.4162 0 49.3721 4.4572 49.3721 9.97069C49.3721 15.4842 47.4162 19.9988 42.1753 19.9988H32.8602ZM42.1753 16.7989C44.7827 16.7989 45.5161 13.77 45.5161 9.9994C45.5161 6.22884 44.7827 3.19995 42.1753 3.19995H32.8602C30.2528 3.19995 29.5205 6.25755 29.5205 9.9994C29.5205 13.7413 30.254 16.7989 32.8602 16.7989H42.1753Z" fill="white"/>
<path d="M52.3866 0H66.2104C70.9362 0 72.511 2.85663 72.511 6.42861C72.511 9.22902 71.2625 11.5138 68.6279 12.3716L73 20H68.7632L64.88 12.9146H56.1629V20H52.3878V0H52.3866ZM56.1618 3.19995V9.68599H66.1558C68.1105 9.68599 68.7632 8.17154 68.7632 6.45732C68.7632 4.74311 68.1116 3.19995 66.1558 3.19995H56.1618Z" fill="white"/>
</g>
</svg>
