<svg preserveAspectRatio="none" width="100%" height="100%" overflow="visible" style="display: block;" viewBox="0 0 227 225" fill="none" xmlns="http://www.w3.org/2000/svg">
<g id="Group">
<path id="Vector" d="M21.8408 58.7768C5.93263 58.7768 0 45.5116 0 29.3036C0 13.0957 5.93263 2.61664e-05 21.8408 2.61664e-05H50.1101C66.0148 2.61664e-05 71.9509 13.0992 71.9509 29.3036C71.9509 45.5081 66.0148 58.7768 50.1101 58.7768H21.8408ZM50.1101 49.3728C58.0226 49.3728 60.2486 40.4705 60.2486 29.3884C60.2486 18.3064 58.0226 9.40403 50.1101 9.40403H21.8408C13.9283 9.40403 11.7058 18.3876 11.7058 29.3884C11.7058 40.3892 13.9318 49.3728 21.8408 49.3728H50.1101Z" fill="var(--fill-0, white)"/>
<path id="Vector_2" d="M140.25 2.61664e-05H152.009V38.9059C152.009 48.7161 146.799 58.7768 129.83 58.7768H109.246C92.2767 58.7768 87.1518 48.7161 87.1518 38.9059V0.0846884H98.8296V38.6554C98.8296 44.0209 101.685 49.3864 109.33 49.3864H129.745C137.39 49.3864 140.25 44.0209 140.25 38.6554V2.61664e-05Z" fill="var(--fill-0, white)"/>
<path id="Vector_3" d="M166.196 2.61664e-05H227V9.40403H202.366V58.7768H190.831V9.40403H166.196V2.61664e-05Z" fill="var(--fill-0, white)"/>
<path id="Vector_4" d="M21.8408 141.875C5.9361 141.875 0 128.606 0 112.402C0 96.1974 5.93263 83.0982 21.8408 83.0982H50.1101C66.0148 83.0982 71.9509 96.1974 71.9509 112.402C71.9509 128.606 66.0148 141.875 50.1101 141.875H21.8408ZM50.1101 132.471C58.0226 132.471 60.2486 123.569 60.2486 112.487C60.2486 101.405 58.0226 92.5022 50.1101 92.5022H21.8408C13.9283 92.5022 11.7058 101.486 11.7058 112.487C11.7058 123.487 13.9318 132.471 21.8408 132.471H50.1101Z" fill="var(--fill-0, white)"/>
<path id="Vector_5" d="M173.29 83.1018H225.987V92.5052H184.783V108.207H213.099V117.61H184.783V141.875H173.29V83.0982V83.1018Z" fill="var(--fill-0, white)"/>
<path id="Vector_6" d="M3.04018 166.2H45.8528C60.4893 166.2 65.3693 174.597 65.3693 185.092C65.3693 193.319 61.5014 200.038 53.3409 202.556L66.8839 224.973H53.762L41.7336 204.149H14.7324V224.973H3.04018V166.196V166.2ZM14.7324 175.603V194.665H45.6864C51.7413 194.665 53.762 190.214 53.762 185.176C53.762 180.139 51.7449 175.603 45.6864 175.603H14.7324Z" fill="var(--fill-0, white)"/>
<path id="Vector_7" d="M87.1518 166.2H140.862V175.603H98.7391V190.634H127.871V200.122H98.7391V215.57H140.862V224.973H87.1518V166.196V166.2Z" fill="var(--fill-0, white)"/>
<path id="Vector_8" d="M180.412 175.597C172.325 175.597 170.053 184.581 170.053 195.581C170.053 206.582 172.329 215.566 180.412 215.566H204.674C210.822 215.566 214.444 211.199 215.203 204.734L225.902 206.331C224.133 217.162 217.814 224.973 204.674 224.973H180.412C164.156 224.973 158.089 211.704 158.089 195.5C158.089 179.296 164.153 166.196 180.412 166.196H204.674C217.899 166.196 224.218 174.173 225.987 185.089L215.206 186.516C214.448 179.967 210.826 175.6 204.677 175.6H180.416L180.412 175.597Z" fill="var(--fill-0, white)"/>
</g>
</svg>
