<svg width="24" height="24" viewBox="0 0 24 24" fill="none" xmlns="http://www.w3.org/2000/svg">
<path d="M2.46 1.5C1.935 1.5 1.5 1.935 1.5 2.46V21.66C1.5 22.185 1.935 22.62 2.46 22.62H21.66C22.185 22.62 22.62 22.185 22.62 21.66V2.46C22.62 1.935 22.185 1.5 21.66 1.5H2.46ZM2.46 2.46H21.66C21.66 9.95807 21.66 14.1619 21.66 21.66H2.46V2.46Z" fill="black"/>
<path fill-rule="evenodd" clip-rule="evenodd" d="M10.0782 11.1205L16.7982 6.80054V17.1993L10.0782 12.8793V16.7999H7.19824V7.19991H10.0782V11.1205ZM15.8382 15.4405L10.4861 11.9999L15.8382 8.55929V15.4405ZM9.11824 8.15991H8.15824V15.8399H9.11824V8.15991Z" fill="black"/>
</svg>
