<svg width="24" height="24" viewBox="0 0 24 24" fill="none" xmlns="http://www.w3.org/2000/svg">
<path d="M11.6966 4.00001C11.5871 4.00043 11.4768 4.01856 11.3683 4.05331C11.1514 4.1228 10.9418 4.25724 10.7608 4.44345L6.5349 8.71163H4.09155C3.49264 8.71163 3 9.21109 3 9.8174V14.1836C3 14.79 3.49264 15.2894 4.09155 15.2894H6.53981L10.7397 19.5306C11.1422 19.9445 11.6564 20.1174 12.0789 19.9158C12.5015 19.7141 12.7082 19.227 12.7082 18.6643V5.20598C12.7082 4.66052 12.4409 4.20264 12.02 4.05402C11.9148 4.01686 11.8061 3.99958 11.6966 4.00001ZM11.6931 4.7199C11.729 4.71937 11.7602 4.72513 11.7857 4.73411C11.8875 4.77005 11.9968 4.86764 11.9968 5.20598V18.6643C11.9968 19.0528 11.8634 19.2216 11.7759 19.2634C11.6883 19.3052 11.5223 19.3093 11.2462 19.0253C11.2455 19.0246 11.2448 19.0239 11.2441 19.0232L6.71449 14.4487C6.7086 14.4428 6.70252 14.4371 6.69625 14.4317C6.7235 14.4555 6.60224 14.2294 6.60224 14.0941V9.90695C6.60224 9.77168 6.72733 9.53789 6.69625 9.56512C6.70252 9.55965 6.7086 9.55397 6.71449 9.54807L11.2652 4.95157C11.2659 4.95086 11.2666 4.95015 11.2673 4.94944C11.4351 4.77685 11.5854 4.72147 11.6931 4.7199ZM16.8302 5.38365C16.7496 5.38522 16.6719 5.4142 16.6096 5.46594C16.5472 5.51767 16.5038 5.58915 16.4864 5.66888C16.469 5.74861 16.4786 5.83195 16.5136 5.9055C16.5486 5.97906 16.607 6.03854 16.6794 6.0744C18.816 7.16664 20.2817 9.4062 20.2817 12.0005C20.2817 14.5948 18.816 16.8348 16.6794 17.9267C16.6373 17.9482 16.5998 17.9779 16.569 18.0142C16.5383 18.0504 16.5148 18.0924 16.5001 18.1379C16.4854 18.1833 16.4796 18.2312 16.4832 18.2788C16.4867 18.3265 16.4995 18.373 16.5208 18.4156C16.5421 18.4583 16.5714 18.4963 16.6072 18.5274C16.643 18.5586 16.6845 18.5823 16.7293 18.5972C16.7741 18.6121 16.8214 18.6179 16.8685 18.6143C16.9155 18.6107 16.9614 18.5978 17.0035 18.5762C19.3753 17.3641 21 14.8727 21 12.0005C21 9.12831 19.3752 6.63728 17.0035 5.42486C16.9501 5.39662 16.8905 5.38244 16.8302 5.38365ZM15.5549 7.31946C15.4743 7.31881 15.3958 7.34565 15.332 7.39568C15.2683 7.4457 15.223 7.516 15.2035 7.59526C15.184 7.67451 15.1913 7.75812 15.2244 7.83261C15.2575 7.90711 15.3143 7.96816 15.3858 8.00595C16.7874 8.77213 17.7401 10.2706 17.7401 12.0005C17.7401 13.7249 16.7922 15.2202 15.3978 15.9873C15.3539 16.0087 15.3149 16.0388 15.2829 16.076C15.251 16.1131 15.2268 16.1564 15.2119 16.2033C15.1969 16.2502 15.1915 16.2997 15.196 16.3487C15.2005 16.3978 15.2148 16.4454 15.238 16.4887C15.2612 16.532 15.2928 16.5701 15.331 16.6006C15.3692 16.6312 15.413 16.6535 15.46 16.6664C15.5069 16.6792 15.556 16.6823 15.6041 16.6754C15.6523 16.6685 15.6985 16.6517 15.7401 16.6262C17.3591 15.7355 18.4584 13.9954 18.4584 12.0005C18.4584 9.99955 17.3537 8.25501 15.7268 7.36565C15.6742 7.33591 15.6151 7.32002 15.5549 7.31946ZM4.09155 9.46776H5.94774C5.90634 9.60779 5.89092 9.75514 5.89092 9.90695V14.0941C5.89092 14.2461 5.90711 14.3936 5.94914 14.5333H4.09155C3.89812 14.5333 3.7464 14.3793 3.7464 14.1836V9.8174C3.7464 9.62178 3.89812 9.46776 4.09155 9.46776ZM14.0207 9.60421C13.9339 9.60687 13.851 9.64129 13.7873 9.70111C13.7236 9.76092 13.6835 9.84208 13.6744 9.92956C13.6652 10.017 13.6876 10.1049 13.7375 10.1769C13.7874 10.2489 13.8613 10.3002 13.9456 10.3213C14.6805 10.5155 15.2259 11.1913 15.2259 12.0005C15.2259 12.8097 14.6806 13.4859 13.9456 13.6805C13.8984 13.691 13.8538 13.7111 13.8144 13.7396C13.775 13.768 13.7417 13.8042 13.7165 13.846C13.6912 13.8878 13.6746 13.9343 13.6675 13.9827C13.6605 14.0312 13.6631 14.0806 13.6754 14.128C13.6876 14.1754 13.7092 14.2198 13.7387 14.2585C13.7683 14.2973 13.8053 14.3296 13.8475 14.3535C13.8897 14.3774 13.9363 14.3924 13.9844 14.3977C14.0324 14.4029 14.0811 14.3983 14.1273 14.3841C15.1731 14.1071 15.9442 13.1416 15.9442 12.0005C15.9442 10.8595 15.1733 9.89354 14.1273 9.617C14.0926 9.60735 14.0567 9.60304 14.0207 9.60421Z" fill="black"/>
</svg>
